<?xml version="1.0" standalone="no"?><!DOCTYPE svg PUBLIC "-//W3C//DTD SVG 1.1//EN" "http://www.w3.org/Graphics/SVG/1.1/DTD/svg11.dtd"><svg t="1735346801915" class="icon" viewBox="0 0 1024 1024" version="1.1" xmlns="http://www.w3.org/2000/svg" p-id="3095" xmlns:xlink="http://www.w3.org/1999/xlink" width="200" height="200"><path d="M945.92 878.06L633 590.1c-0.76-0.76-1.56-1.49-2.36-2.19A318.79 318.79 0 0 0 704 384c0-176.73-143.27-320-320-320S64 207.27 64 384s143.27 320 320 320a318.44 318.44 0 0 0 175.72-52.5 48.78 48.78 0 0 0 5.43 6.49L878 946a48 48 0 0 0 67.89 0 48 48 0 0 0 0.03-67.94zM144 384c0-132.56 107.45-240 240-240s240 107.46 240 240-107.45 240-240 240-240-107.41-240-240z" fill="#999999" p-id="3096"></path></svg>